Coordinates
version=1
nRows=6
nColumns=63
inDegrees=yes

Units are S.I. units (second, meters, Newtons, ...)
If the header above contains a line with 'inDegrees', this indicates whether rotational values are in degrees (yes) or radians (no).

endheader
time	pelvis_tilt	pelvis_list	pelvis_rotation	pelvis_tx	pelvis_ty	pelvis_tz	hip_flexion_r	hip_adduction_r	hip_rotation_r	knee_angle_r	knee_angle_r_beta	ankle_angle_r	subtalar_angle_r	mtp_angle_r	hip_flexion_l	hip_adduction_l	hip_rotation_l	knee_angle_l	knee_angle_l_beta	ankle_angle_l	subtalar_angle_l	mtp_angle_l	L5_S1_Flex_Ext	L5_S1_Lat_Bending	L5_S1_axial_rotation	L4_L5_Flex_Ext	L4_L5_Lat_Bending	L4_L5_axial_rotation	L3_L4_Flex_Ext	L3_L4_Lat_Bending	L3_L4_axial_rotation	L2_L3_Flex_Ext	L2_L3_Lat_Bending	L2_L3_axial_rotation	L1_L2_Flex_Ext	L1_L2_Lat_Bending	L1_L2_axial_rotation	L1_T12_Flex_Ext	L1_T12_Lat_Bending	L1_T12_axial_rotation	Abs_r3	Abs_r2	Abs_r1	Abs_t1	Abs_t2	neck_flexion	neck_bending	neck_rotation	arm_flex_r	arm_add_r	arm_rot_r	elbow_flex_r	pro_sup_r	wrist_flex_r	wrist_dev_r	arm_flex_l	arm_add_l	arm_rot_l	elbow_flex_l	pro_sup_l	wrist_flex_l	wrist_dev_l
      0.82352941	      7.63959451	      1.71022625	     88.70977403	      0.44060081	      0.66547830	      0.83038795	      6.71655308	      2.52316201	      5.59897620	      0.57078620	      0.00996210	     13.32922734	     -2.72058131	      0.00000000	      8.84944921	     -2.89762176	     14.87970157	      4.73903914	      0.08271184	     17.82193819	    -10.70816111	      0.00000000	      0.15554264	      0.41053251	     -0.94930081	      0.28885824	      0.54600824	     -1.00863211	      0.25554101	      0.99816876	     -1.00863211	      0.17776969	      0.99816876	     -0.83063820	      0.14443690	      0.83715790	     -0.77130690	      0.08887707	      0.63591487	     -0.71197560	      1.11102554	      4.64402592	     -5.27972629	      0.00000000	      0.00000000	     23.79770665	     -0.49319876	     -1.39696210	     38.74066652	    -13.24738483	     31.49647928	     74.47164782	     87.69411197	     -4.54600865	     11.88306755	     25.41723328	    -22.58907992	     18.55234950	     95.91047534	     80.57575196	      2.31676274	     14.31447440
      0.84313725	      7.52327358	      1.72478731	     88.13769064	      0.44150992	      0.66643705	      0.83024820	      6.76125817	      2.49187090	      7.27628472	      0.55463351	      0.00968018	     12.74175490	     -4.17271116	      0.00000000	      8.70566958	     -2.83095919	     14.33452394	      4.60047351	      0.08029341	     17.42054470	    -11.19782636	      0.00000000	      0.19959982	      0.37242323	     -0.98612339	      0.37067682	      0.49532289	     -1.04775610	      0.32792254	      0.90550984	     -1.04775610	      0.22812263	      0.90550984	     -0.86285796	      0.18534839	      0.75944545	     -0.80122525	      0.11405134	      0.57688358	     -0.73959254	      1.42572155	      4.21292604	     -5.48452244	      0.00000000	      0.00000000	     22.82990418	      0.20048415	     -1.76267166	     42.60483599	    -13.64314110	     33.05154366	     77.33700752	     87.01590831	     -4.37348897	     11.75350602	     30.23752353	    -26.10613975	     21.03552448	     98.43457330	     85.44033830	      9.63922874	      9.67856608
      0.86274510	      7.50226755	      1.75841325	     87.62073655	      0.44202687	      0.66735632	      0.83014646	      6.79349809	      2.51977667	      8.55983968	      0.53332590	      0.00930829	     12.30918792	     -5.07761195	      0.00000000	      8.53661648	     -2.87110458	     13.70639648	      4.42885223	      0.07729805	     17.30594923	    -11.08621845	      0.00000000	      0.22949067	      0.35543473	     -1.00006123	      0.42618713	      0.47272820	     -1.06256506	      0.37703022	      0.86420401	     -1.06256506	      0.26228489	      0.86420401	     -0.87505358	      0.21310504	      0.72480251	     -0.81254975	      0.13113097	      0.55056840	     -0.75004592	      1.63922891	      4.02074880	     -5.56204056	      0.00000000	      0.00000000	     22.44705859	      0.83342987	     -1.70428923	     46.52589605	    -14.50208719	     34.66372188	     80.69053219	     86.82110225	     -4.56215505	     11.88015530	     36.17181231	    -29.51034636	     25.25454955	    100.55708739	     87.57632697	     14.44310495	      5.29875457
      0.88235294	      7.69954640	      1.72704826	     87.18976789	      0.44216429	      0.66828735	      0.82984846	      6.86391471	      2.76635100	      9.77723382	      0.50991312	      0.00889966	     11.86056191	     -6.21063804	      0.00000000	      8.39560529	     -3.13826425	     12.69468668	      4.24183643	      0.07403401	     17.38611314	    -10.47730107	      0.00000000	      0.26993460	      0.37675044	     -0.95441727	      0.50129554	      0.50107809	     -1.01406835	      0.44347555	      0.91603102	     -1.01406835	      0.30850825	      0.91603102	     -0.83511511	      0.25066127	      0.76826950	     -0.77546403	      0.15424063	      0.58358643	     -0.71581295	      1.92811583	      4.26187633	     -5.30818254	      0.00000000	      0.00000000	     22.24409160	      0.82357788	     -1.60321047	     50.31274255	    -15.83499498	     35.60167755	     84.53572965	     87.17447561	     -5.44472057	     11.57125400	     42.64098305	    -32.00037356	     29.93507882	    102.41034528	     88.51957442	     15.54673232	      1.29148587
      0.90196078	      8.09185220	      1.78967806	     86.97171612	      0.44146512	      0.66956301	      0.82949963	      6.78175754	      3.15504260	      9.90390220	      0.48437943	      0.00845402	     11.45611051	     -6.23918822	      0.00000000	      8.12358153	     -3.54530766	     12.24026418	      4.04658939	      0.07062631	     17.16422521	    -10.33244280	      0.00000000	      0.29349363	      0.44373482	     -0.91713865	      0.54504701	      0.59016730	     -0.97445982	      0.48218068	      1.07889683	     -0.97445982	      0.33543387	      1.07889683	     -0.80249632	      0.27253818	      0.90486404	     -0.74517515	      0.16770226	      0.68734523	     -0.68785399	      2.09639563	      5.01961698	     -5.10085003	      0.00000000	      0.00000000	     22.11049747	      0.54464781	      0.01995474	     54.04470582	    -17.02109244	     35.54725499	     88.07853169	     87.74220456	     -5.85995276	     10.51341330	     48.38304321	    -33.28824623	     32.62032996	    104.37512166	     88.87768972	     15.52231430	      0.33359741
      0.92156863	      8.37547496	      1.95975186	     86.62797031	      0.44155863	      0.67142023	      0.82915480	      6.56039340	      3.48285793	     10.67366554	      0.46618205	      0.00813641	     10.75749911	     -7.13392941	      0.00000000	      7.61023590	     -3.92830062	     10.87125487	      3.64335995	      0.06358863	     16.97100362	     -9.13103880	      0.00000000	      0.31797437	      0.48484071	     -0.79124573	      0.59051020	      0.64483815	     -0.84069859	      0.52240009	      1.17884171	     -0.84069859	      0.36341291	      1.17884171	     -0.69234001	      0.29527100	      0.98868718	     -0.64288716	      0.18169056	      0.75101826	     -0.59343430	      2.27125914	      5.48461512	     -4.40067138	      0.00000000	      0.00000000	     21.51897108	      0.22783290	      0.81870595	     57.24605724	    -18.10637926	     34.96066802	     90.90915629	     88.13863851	     -8.85296084	      7.81541755	     54.14293554	    -34.45928633	     37.62384908	    104.22596543	     89.12644452	      1.79509759	    -10.83384860
